<svg id="Layer_1" data-name="Layer 1" xmlns="http://www.w3.org/2000/svg" viewBox="0 0 283.46 283.46"><defs><style>.cls-1{fill:#111212;}</style></defs><path style="fill:#ee831f;" class="cls-1" d="M233.52,146.4a114.36,114.36,0,0,0-146-7.28v-1a68.62,68.62,0,0,1,114-51.48,4.62,4.62,0,0,0,6.32-.19L233.66,60.6a4.62,4.62,0,0,0-.15-6.67A114.36,114.36,0,0,0,41.77,138.12v92.29c0,.06,0,.13,0,.2V250.7a22.87,22.87,0,0,0,45.74,0V230.47a68.62,68.62,0,0,1,114-51.35,4.62,4.62,0,0,0,6.32-.2l25.85-25.85a4.59,4.59,0,0,0,1.35-3.36A4.67,4.67,0,0,0,233.52,146.4Z"/><circle style="fill:#ee831f;" class="cls-1" cx="160.71" cy="251.25" r="22.32"/></svg>