<svg id="Layer_1" data-name="Layer 1" xmlns="http://www.w3.org/2000/svg" viewBox="0 0 283.46 64.64"><defs><style>.cls-1{fill:#111212;}</style></defs><path style="fill:#ee831f;" class="cls-1" d="M26.53,34.88a13.39,13.39,0,0,1,8.84,3.34.89.89,0,0,0,1.23,0l5-5a1,1,0,0,0,.26-.66.91.91,0,0,0-.29-.64A22.29,22.29,0,0,0,4.24,48.26v3.28a4.46,4.46,0,0,0,8.92,0V48.26A13.38,13.38,0,0,1,26.53,34.88Z"/><path style="fill:#ee831f;" class="cls-1" d="M13.15,52.17V30.23a13.38,13.38,0,0,1,22.22-10,.89.89,0,0,0,1.23,0l5-5a.89.89,0,0,0,0-1.3A22.29,22.29,0,0,0,4.24,30.23V52.17a4.46,4.46,0,1,0,8.91,0Z"/><circle style="fill:#ee831f;" class="cls-1" cx="27.42" cy="52.28" r="4.35"/><path style="fill:#ee831f;" d="M59.73,19.9H82.46V25H65.12V35.5h14.8v4.79H65.12V55.5H59.73Z"/><path style="fill:#ee831f;" d="M86.12,19.9h5.1V49c0,1.15.64,1.73,1.91,1.73h1.75V55.5H92.61A7.31,7.31,0,0,1,88,54.11c-1.26-1-1.9-2.53-1.9-4.76Z"/><path style="fill:#ee831f;" d="M112.32,53.25h-.1a4.24,4.24,0,0,1-2.2,1.91,10.5,10.5,0,0,1-4,.63,9.25,9.25,0,0,1-6.54-2.24A7,7,0,0,1,97,48.05a7.17,7.17,0,0,1,2.1-5.29q2.1-2.16,6.15-2.2h7.06V37.9q0-3.34-5.2-3.25a9.34,9.34,0,0,0-3,.39,3.69,3.69,0,0,0-1.8,1.56l-4-3.05q2.91-3.81,8.57-3.71a13.58,13.58,0,0,1,7.64,1.81q2.86,1.91,2.91,6.54V55.5h-5.1Zm0-8.49h-6.11q-4.44.09-4.39,3.05A2.72,2.72,0,0,0,103,50a5.36,5.36,0,0,0,3.63,1,8.92,8.92,0,0,0,4.52-.76q1.2-.81,1.2-3.66Z"/><path style="fill:#ee831f;" d="M124,30.16h5.1V45.25a5.42,5.42,0,0,0,1.44,4,4.87,4.87,0,0,0,3.62,1.44,4.78,4.78,0,0,0,3.59-1.44,5.48,5.48,0,0,0,1.41-4V30.16h5.1V55.5h-5.1V52.79h-.1a8.14,8.14,0,0,1-6.56,3,8.55,8.55,0,0,1-5.69-2.29A7.93,7.93,0,0,1,124,47Z"/><path style="fill:#ee831f;" d="M151.16,30.16h5.1v2.68h.1a8.22,8.22,0,0,1,6.62-3,9.4,9.4,0,0,1,4.24.9,12.75,12.75,0,0,1,2.91,2.42,10,10,0,0,1,8-3.32,8.69,8.69,0,0,1,5.76,2.22,8.54,8.54,0,0,1,2.69,6.59V55.5h-5.1V40.41a5.52,5.52,0,0,0-1.39-4,4.84,4.84,0,0,0-3.59-1.42,4.93,4.93,0,0,0-3.62,1.42,5.38,5.38,0,0,0-1.44,4V55.5h-5.1V40.41a5.48,5.48,0,0,0-1.39-4,4.92,4.92,0,0,0-3.61-1.42,4.81,4.81,0,0,0-3.59,1.42,5.32,5.32,0,0,0-1.47,4V55.5h-5.1Z"/><path style="fill:#ee831f;" d="M193.47,30.16h5.1V45.25a5.42,5.42,0,0,0,1.44,4,4.87,4.87,0,0,0,3.62,1.44,4.75,4.75,0,0,0,3.58-1.44,5.45,5.45,0,0,0,1.42-4V30.16h5.1V55.5h-5.1V52.79h-.1a8.14,8.14,0,0,1-6.57,3,8.54,8.54,0,0,1-5.68-2.29,7.93,7.93,0,0,1-2.81-6.5Z"/><path style="fill:#ee831f;" d="M220.32,30.16h5.11v2.68h.09a8.52,8.52,0,0,1,11.92-1.05l-3.71,4.42a5.4,5.4,0,0,0-3.35-1.27A4.81,4.81,0,0,0,227,36.21a5,5,0,0,0-1.61,4V55.5h-5.11Z"/><path style="fill:#ee831f;" d="M235.34,50.4h5.1v5.1h-5.1Z"/><path style="fill:#ee831f;" d="M247.33,19.9h5.1V25h-5.1Zm0,10.26h5.1V55.5h-5.1Z"/><path style="fill:#ee831f;" d="M267.93,51a6.77,6.77,0,0,0,3.59-.86,2.65,2.65,0,0,0,1.39-2.39,2.09,2.09,0,0,0-.83-1.9,4.27,4.27,0,0,0-2.27-.61l-4.49-.39a8.61,8.61,0,0,1-5.2-2.15,6.52,6.52,0,0,1-2.1-5.06,6.87,6.87,0,0,1,2.76-5.86,11,11,0,0,1,6.69-1.95,20,20,0,0,1,3.15.22,15.56,15.56,0,0,1,2.61.68,15,15,0,0,1,4.2,2.57L274.28,37a16,16,0,0,0-3.1-1.73,10.38,10.38,0,0,0-3.71-.61,5.12,5.12,0,0,0-3.35.85,2.79,2.79,0,0,0-1,2.2,1.72,1.72,0,0,0,.76,1.49,4.41,4.41,0,0,0,2.59.9l4.2.32c2.63.2,4.54,1,5.71,2.39A8.08,8.08,0,0,1,278,48a6.57,6.57,0,0,1-3,5.69,13,13,0,0,1-7.49,2.1,16.07,16.07,0,0,1-11.16-4.54l3.56-3.49A10.57,10.57,0,0,0,267.93,51Z"/></svg>